/* XPM */
static char * luckygps_xpm[] = {
"32 32 122 2",
"  	c None",
". 	c #000000",
"+ 	c #670000",
"@ 	c #690000",
"# 	c #D00000",
"$ 	c #D30000",
"% 	c #F80000",
"& 	c #F70000",
"* 	c #F00000",
"= 	c #001827",
"- 	c #5C0000",
"; 	c #850000",
"> 	c #8F0000",
", 	c #5B0000",
"' 	c #00A0FE",
") 	c #003151",
"! 	c #700000",
"~ 	c #780000",
"{ 	c #003253",
"] 	c #00A1FE",
"^ 	c #003454",
"/ 	c #0093EF",
"( 	c #008FE4",
"_ 	c #715213",
": 	c #C19323",
"< 	c #C09222",
"[ 	c #705113",
"} 	c #121009",
"| 	c #008FE6",
"1 	c #003251",
"2 	c #195A76",
"3 	c #9F7D1C",
"4 	c #CBD025",
"5 	c #FFFF2D",
"6 	c #FFFF2F",
"7 	c #AFB41F",
"8 	c #C69C24",
"9 	c #1B5A76",
"0 	c #008EE5",
"a 	c #151209",
"b 	c #715D13",
"c 	c #ACA91D",
"d 	c #FEF92A",
"e 	c #FFFA2B",
"f 	c #FFF92A",
"g 	c #838115",
"h 	c #C7C523",
"i 	c #B58C21",
"j 	c #5E0000",
"k 	c #770000",
"l 	c #725113",
"m 	c #DDDB29",
"n 	c #504F0D",
"o 	c #FFFC2B",
"p 	c #FFFD2D",
"q 	c #5B5A10",
"r 	c #EEEC2A",
"s 	c #E2E428",
"t 	c #775413",
"u 	c #6B0000",
"v 	c #6A0000",
"w 	c #D50000",
"x 	c #8A0000",
"y 	c #886318",
"z 	c #716F12",
"A 	c #020200",
"B 	c #E1DF28",
"C 	c #AFAC1D",
"D 	c #FFFF2B",
"E 	c #BE8620",
"F 	c #7E0000",
"G 	c #D20000",
"H 	c #800000",
"I 	c #715613",
"J 	c #EBE92A",
"K 	c #FFF92B",
"L 	c #FEFB2B",
"M 	c #FFFE2B",
"N 	c #AD7C1D",
"O 	c #870000",
"P 	c #6F0000",
"Q 	c #4C380D",
"R 	c #B2B120",
"S 	c #FFFE2D",
"T 	c #FEFA2B",
"U 	c #FFFE2C",
"V 	c #47450C",
"W 	c #FEFE2E",
"X 	c #745213",
"Y 	c #750000",
"Z 	c #5D0000",
"` 	c #CAC822",
" .	c #C1C021",
"..	c #F9F82C",
"+.	c #FFFB2B",
"@.	c #FFFF2C",
"#.	c #5C5A0F",
"$.	c #FDF82A",
"%.	c #878115",
"&.	c #141109",
"*.	c #008EE4",
"=.	c #0D4E72",
"-.	c #E4E227",
";.	c #F3F12A",
">.	c #9B981A",
",.	c #D6D526",
"'.	c #ABAB1D",
").	c #195775",
"!.	c #000205",
"~.	c #272307",
"{.	c #767014",
"].	c #6F6813",
"^.	c #332708",
"/.	c #740000",
"(.	c #6C0000",
"_.	c #600000",
":.	c #830000",
"<.	c #7A0000",
"[.	c #F10000",
"}.	c #D60000",
"|.	c #D40000",
"1.	c #6D0000",
"                                                                ",
"                              .                                 ",
"                                .                               ",
"                                                                ",
"                                                                ",
"                              + @                               ",
"                              # $                               ",
"                              % &                               ",
"                              * *                               ",
"                  =         - ; > ,         =                   ",
"                    ' )     !     ~     { ]                     ",
"                    ^ / (   _ : < [ } | / 1                     ",
"                      | 2 3 4 5 6 7 8 9 0                       ",
"                      a b c d e f g h i                         ",
"                  j k l m n o f p q r s t u -                   ",
".         v w & * x   y z A 5 e B . C D E   F * & G +           ",
". .       + G & * H   I J 5 K d e L d M N   O * & w v     .     ",
"                  j P Q R S T e e U V W X Y Z                   ",
"                        `  ...+.@.#.$.%.&.                      ",
"                      *.=.-.;.>.,.o '.).|                       ",
"                    1 / | !.~.{.].^.  ( / ^                     ",
"                    ] {     /.    (.    ) '                     ",
"                  =         _.:.<._.        =                   ",
"                              * [.                              ",
"                              & &                               ",
"                              }.|.                              ",
"                              1.v                               ",
"                                                                ",
"                                                                ",
"                                                                ",
"                                                                ",
"                              .                                 "};
